PathFileType	4	(X/Y/Z)	C:/Users/beibeiliu/ov580/test_trc/User1\sequence.8_training_dense_left.trc
DataRate	CameraRate	NumFrames	NumMarkers	Units	OrigDataRate	OrigDataStartFrame	OrigNumFrames
120	120	24	19	mm	120	217	289
Frame#	Time	ThumbCMC			ThumbMCP			ThumbIP			ThumbTip			IndexMCP			IndexPIP			IndexTip			MiddleMCP			MiddlePIP			MiddleTip			RingMCP			RingPIP			RingTip			PinkyMCP			PinkyPIP			PinkyTip			BackHand1			BackHand2			BackHand3	
		X0	Y0	Z0	X1	Y1	Z1	X2	Y2	Z2	X3	Y3	Z3	X4	Y4	Z4	X5	Y5	Z5	X6	Y6	Z6	X7	Y7	Z7	X8	Y8	Z8	X9	Y9	Z9	X10	Y10	Z10	X11	Y11	Z11	X12	Y12	Z12	X13	Y13	Z13	X14	Y14	Z14	X15	Y15	Z15	X16	Y16	Z16	X17	Y17	Z17	X18	Y18	Z18	
216	1.8	-232.03	133.697	5.23242	-237.872	143.529	-24.3092	-249.48	150.811	-43.9611	-259.224	161.093	-58.4622	-212.226	110.489	-77.4999	-179.817	117.248	-65.8894	-194.203	123.974	-36.1003	-203.972	89.3307	-73.9581	-172.526	104.596	-60.427	-192.577	107.406	-25.6078	-193.09	71.151	-59.8872	-168.463	88.4765	-42.7714	-190.717	96.9999	-17.982	-187.573	57.3424	-46.1649	-170.588	76.832	-34.1806	-194.964	86.9967	-11.2437	-239.219	67.9034	-18.3174	-242.282	71.1917	17.0408	-250.078	100.276	-8.27345	
217	1.80833	-235.596	137.69	0.281674	-239.05	146.914	-24.0134	-248.648	154.461	-42.456	-258.255	164.926	-56.9683	-215.572	112.513	-79.3073	-185.157	114.747	-72.3396	-196.691	126.044	-39.2785	-205.266	88.6991	-76.9921	-177.774	102.082	-63.8625	-194.492	108.547	-27.7794	-196.227	71.7086	-62.6145	-172.858	84.9822	-46.403	-195.555	96.7784	-19.9865	-196.12	55.3931	-45.5002	-173.566	72.8482	-35.0111	-198.752	83.8387	-12.4515	-244.603	70.0171	-18.2426	-245.468	75.4774	18.6512	-252.917	103.056	-7.85306	
218	1.81667	-232.494	139.087	1.26218	-233.446	150.636	-20.5384	-246.311	159.472	-41.9801	-252.817	174.643	-54.2888	-220.334	113.124	-78.3192	-188.604	112.828	-73.4767	-197.364	125.101	-39.7855	-212.217	87.1521	-77.3169	-182.751	96.0433	-65.3761	-199.074	106.661	-28.9565	-206.429	69.072	-62.86	-178.568	85.3047	-48.6226	-195.213	92.2484	-22.373	-205.35	51.9551	-46.3118	-183.025	73.076	-38.7963	-202.101	84.5308	-13.823	-249.717	73.8375	-16.6964	-251.411	77.32	18.3481	-256.108	107.892	-4.00736	
219	1.825	-225.991	140.354	4.61715	-225.408	154.597	-17.6271	-238.796	166.559	-40.6325	-238.54	180.089	-49.7949	-223.021	117.281	-77.1718	-190.204	110.424	-73.311	-198.584	124.387	-38.0211	-220.29	90.8463	-75.1244	-187.131	91.7444	-65.8736	-200.044	103.088	-29.2241	-211.344	70.8737	-65.3381	-185.823	81.0437	-53.1124	-200.423	90.9176	-21.5024	-215.368	56.9862	-48.8343	-188.707	65.8811	-40.7309	-204.039	82.6746	-17.1772	-253.461	79.0533	-15.946	-255.887	85.2982	19.4256	-254.713	113.486	-4.50078	
220	1.83333	-219.581	142.749	8.90734	-216.748	154.804	-14.113	-223.69	171.667	-32.8987	-226.233	185.07	-45.4968	-223.527	120.509	-74.5906	-191.069	112.189	-71.6077	-192.772	121.901	-38.9968	-225.939	98.5169	-73.9392	-190.674	94.7183	-66.819	-201.881	105.814	-28.1751	-220.02	73.443	-66.2485	-192.33	75.3598	-51.9172	-202.905	88.2373	-23.1073	-221.764	55.9582	-51.2288	-197.023	65.1217	-41.7481	-211.794	82.6364	-15.5232	-258.776	83.513	-15.1672	-256.256	91.8223	19.0863	-253.066	122.479	-1.93485	
221	1.84167	-213.178	142.756	12.8274	-208.855	155.425	-11.7981	-214.175	173.172	-31.1523	-211.215	189.119	-38.7307	-224.229	125.321	-71.4617	-194.497	111.419	-73.0943	-192.796	119.111	-37.1794	-228.202	104.555	-74.4659	-195.308	91.7951	-65.3952	-203.753	102.814	-26.4424	-227.912	81.7191	-65.717	-198.302	76.4694	-52.087	-209.24	86.914	-20.3946	-231.045	64.4742	-52.3101	-204.966	65.0301	-41.2554	-216.222	79.2821	-12.1929	-261.4	93.9837	-14.3575	-260.341	93.4727	26.7783	-250.241	129.282	1.29594	
222	1.85	-208.666	138.581	14.3465	-201.569	152.926	-9.81918	-203.691	173.42	-26.5183	-198.014	190.858	-34.4604	-222.13	133.68	-68.7905	-194.703	114.581	-73.5176	-189.771	115.606	-37.7453	-231.621	111.182	-71.6241	-198.016	94.6291	-65.5364	-205.344	100.906	-26.1771	-231.454	87.9722	-66.7109	-203.981	76.7968	-53.5607	-212.493	84.7719	-21.1576	-242.446	70.131	-50.5994	-212.113	65.7491	-40.1956	-222.841	79.8144	-11.5808	-265.152	99.68	-12.9716	-259.519	99.408	24.8483	-247.239	128.693	7.67418	
223	1.85833	-203.409	136.394	16.3371	-192.191	144.969	-4.35821	-192.861	165.352	-21.3139	-181.992	185.427	-26.3957	-217.036	137.275	-67.5715	-195.817	112.191	-71.5473	-192.975	110.833	-34.4128	-231.179	113.861	-71.9403	-201.252	96.3468	-68.3887	-204.037	100.724	-26.0844	-235.385	95.7023	-66.2436	-208.367	79.2523	-52.036	-214.54	87.0508	-22.8233	-243.579	77.5704	-55.9807	-219.275	71.5641	-43.1252	-227.743	82.4634	-13.027	-265.235	111.59	-12.0707	-265.264	102.336	22.6836	-243.453	131.324	7.97194	
224	1.86667	-200.016	130.038	16.4709	-189.567	141.732	-5.93426	-177.922	162.852	-15.4214	-167.591	178.457	-22.2483	-210.858	139.313	-66.2919	-193.494	110.318	-68.9054	-191.616	109.602	-33.1563	-228.082	118.545	-72.4017	-203.995	93.176	-65.7282	-204.116	99.1738	-26.269	-239.558	100.704	-64.245	-213.688	77.7974	-52.4984	-218.014	87.6152	-21.8343	-250.146	81.9477	-57.5435	-225.726	69.6863	-44.353	-231.48	85.6697	-12.6893	-266.025	115.557	-10.5761	-264.029	108.171	25.407	-237.826	137.252	8.92412	
225	1.875	-194.466	125.766	19.4555	-179.188	136.39	1.46501	-172.464	151.617	-12.9427	-156.391	172.15	-20.8434	-205.467	137.907	-66.059	-189.778	109.729	-67.4	-195.073	102.945	-34.4634	-225.232	126.572	-67.9721	-207.453	94.0658	-67.093	-205.965	95.0034	-28.1588	-237.651	102.757	-66.8506	-214.67	82.466	-53.7485	-221.483	86.5832	-22.1516	-249.973	91.1351	-56.4253	-231.209	74.5367	-43.8614	-234.513	86.572	-11.5726	-263.15	123.895	-8.97396	-260.557	110.27	26.4941	-232.027	136.438	11.6533	
226	1.88333	-191.279	120.778	20.1076	-177.339	128.4	-0.580495	-160.977	149.062	-12.2704	-147.15	162.237	-20.8034	-200.436	138.693	-60.997	-190.379	107.271	-67.5174	-191.662	99.9705	-33.7437	-220.469	127.026	-67.6352	-205.498	93.5687	-64.4458	-206.474	94.3551	-25.8163	-233.879	109.263	-64.8244	-220.677	81.7951	-53.6116	-222.766	89.4127	-19.4068	-253.051	94.6786	-57.4957	-235.992	75.134	-43.3776	-233.837	88.8089	-14.7973	-261.426	128.634	-11.1261	-257.918	117.002	25.2591	-229.235	135.148	14.9417	
227	1.89167	-191.985	112.69	21.5436	-174.196	121.438	1.7187	-158.669	137.305	-13.1101	-141.192	149.499	-22.1535	-196.409	137.59	-58.4203	-188.174	106.96	-68.9394	-189.622	98.8124	-31.7338	-215.593	127.911	-66.1375	-203.393	93.076	-64.5251	-206.002	91.0841	-25.1143	-235.248	108.971	-65.7819	-219.557	81.7185	-52.9909	-224.741	87.7455	-18.459	-253.241	102.478	-54.3517	-238.484	78.1152	-46.7545	-235.635	84.5999	-12.7484	-253.76	135.383	-8.85041	-257.692	117.329	25.2824	-221.82	137.984	15.4268	
228	1.9	-189.533	109.009	23.9651	-171.267	112.953	4.71832	-154.269	127.538	-11.1352	-132.294	137.883	-17.7312	-193.475	133.132	-59.4365	-188.742	103.699	-66.9038	-187.552	95.1773	-29.7163	-213.629	126.728	-65.3423	-205.743	92.4516	-64.2466	-208.698	88.2054	-27.257	-237.133	113.291	-61.6024	-220.125	82.5813	-53.6195	-222.319	83.7209	-22.3688	-254.816	103.826	-53.8493	-237.914	77.7774	-42.5803	-234.758	91.0152	-13.4206	-253.056	134.318	-6.53519	-254.767	119.956	27.7575	-218.897	133.567	19.0016	
229	1.90833	-189.097	105.157	23.287	-168.253	106.74	5.2013	-150.81	120.099	-10.7764	-128.223	130.518	-19.6846	-185.738	132.759	-55.5089	-185.544	101.109	-65.9576	-188.995	91.5863	-32.4468	-209.969	128.49	-61.3562	-202.66	90.2955	-63.3166	-209.209	85.6312	-27.2691	-232.541	113.266	-62.9401	-224.006	81.5557	-53.6666	-225.949	84.9349	-18.5972	-250.588	103.357	-54.9499	-239.127	80.8252	-46.5676	-235.273	86.9666	-10.9257	-247.002	134.126	-4.62726	-255.1	119.867	28.7568	-218.689	133.427	16.3675	
230	1.91667	-186.192	101.043	25.2399	-166.386	105.064	2.64972	-147.267	114.341	-10.8615	-126.314	121.235	-19.9793	-184.296	130.856	-53.1862	-186.058	97.3922	-63.8249	-190.512	89.302	-28.7286	-212.03	126.527	-61.7766	-202.988	90.0807	-63.7255	-205.85	85.7875	-22.3407	-226.833	114.462	-59.7955	-225.142	81.8806	-55.5485	-221.446	81.8579	-21.0963	-251.558	106.813	-52.6598	-237.327	80.4873	-41.782	-235.361	88.7679	-9.89526	-244.352	137.046	-4.30594	-247.011	121.126	28.3247	-214.884	131.393	20.0176	
231	1.925	-185.512	100.111	23.4702	-160.904	100.286	5.1296	-144.16	109.064	-10.8331	-123.353	110.431	-17.4026	-179.646	126.361	-53.5112	-183.032	96.4107	-63.7421	-191.697	88.3546	-25.4406	-203.183	123.574	-61.2819	-201.277	87.9379	-60.3306	-205.781	84.166	-21.2336	-225.918	113.181	-60.1585	-224.805	81.3916	-53.666	-222.856	82.313	-19.7922	-247.006	109.91	-49.9237	-237.204	82.2874	-43.5655	-233.102	84.4088	-12.7205	-240.347	136.82	-2.08112	-247.157	121.739	30.1876	-211.507	129.47	20.8478	
232	1.93333	-183.21	97.3626	24.5793	-164.515	96.0923	2.42609	-142.738	102.216	-10.2886	-124.457	102.082	-18.2755	-178.445	123.848	-53.7883	-180.485	93.6093	-62.5979	-187.453	84.0795	-29.2884	-204.399	122.052	-61.991	-199.812	86.9084	-61.0201	-205.501	81.0579	-24.9565	-226.932	111.21	-60.9651	-219.567	81.4955	-52.9559	-221.861	82.0449	-18.1063	-243.419	107.366	-52.1664	-237.642	80.2687	-42.4719	-232.362	87.1802	-9.3207	-237.663	133.893	0.800185	-246.419	120.169	30.8476	-209.497	126.585	24.7791	
233	1.94167	-184.315	92.5905	27.562	-164.297	90.2856	4.75505	-141.488	94.2275	-8.74056	-119.218	98.7875	-21.3346	-176.012	122.106	-50.4179	-181.235	90.0984	-61.6225	-189.642	83.2015	-26.6595	-201.005	122.312	-58.0077	-200.726	88.1668	-62.8517	-205.841	82.9012	-20.6814	-221.92	115.551	-56.8261	-222.219	80.6423	-53.4044	-219.566	82.4238	-15.9308	-242.987	108.873	-50.812	-234.514	81.0546	-40.6836	-233.126	84.8947	-11.6424	-239.585	135.766	-1.2588	-245.527	121.009	31.4455	-207.338	128.28	20.6944	
234	1.95	-180.586	93.5533	25.4434	-162.385	85.5161	5.77251	-139.488	91.4672	-10.1222	-123.039	90.8751	-22.8335	-173.335	118.873	-52.7873	-180.676	87.1025	-59.234	-185.464	81.5353	-25.4505	-197.741	118.601	-61.0619	-198.634	83.5783	-58.3995	-203.803	81.7957	-21.6199	-220.239	109.685	-60.6825	-218.123	80.3301	-52.2823	-220.89	82.5673	-16.5672	-240.002	108.749	-49.9853	-235.025	79.9678	-42.5094	-229.47	84.6215	-9.31283	-233.301	136.012	-2.01348	-240.353	122.507	31.4043	-204.879	126.889	22.8113	
235	1.95833	-181.175	89.7583	29.4777	-158.943	84.3414	6.91817	-137.613	85.5327	-7.80734	-119.995	87.5015	-22.3508	-173.633	118.746	-52.0802	-178.244	88.8089	-60.9181	-183.61	81.0494	-22.9462	-197.97	117.128	-61.3649	-195.211	82.6344	-57.4387	-202.906	81.4641	-20.7133	-219.646	109.738	-59.6224	-216.292	78.7461	-49.9734	-219.858	80.3587	-17.9792	-241.293	107.284	-51.8862	-232.814	80.2078	-40.7899	-228.088	84.0861	-11.7147	-233.094	133.931	-1.48299	-243.787	120.614	31.6979	-199.351	127.032	22.8976	
236	1.96667	-176.86	88.4881	29.7821	-156.771	80.9241	8.60369	-134.999	83.8545	-7.52821	-116.887	82.5799	-18.3887	-167.434	115.539	-51.3547	-177.276	87.9288	-58.9095	-185.524	81.2244	-21.5208	-193.535	120.297	-56.1042	-196.52	82.8739	-56.7487	-200.771	80.7593	-21.1406	-215.565	113.406	-56.8299	-217.046	77.8305	-48.2307	-218.936	82.232	-15.874	-240.249	109.788	-51.4469	-229.85	80.4941	-40.8262	-225.015	87.8284	-10.0695	-227.775	134.503	1.19136	-240.891	123.77	31.1588	-200.475	125.522	23.3844	
237	1.975	-179.046	93.2919	26.0716	-154.918	84.2288	6.35701	-137.746	84.5975	-8.84001	-115.159	80.7802	-17.4739	-165.332	116.449	-50.999	-171.602	89.0931	-58.892	-184.174	80.9808	-25.3691	-188.526	119.106	-57.7621	-190.326	84.2755	-57.4355	-199.936	82.6166	-18.5202	-213.862	113.841	-57.3615	-212.23	80.5488	-51.5529	-212.979	81.4206	-17.2741	-231.764	109.727	-50.927	-228.796	83.2989	-44.9171	-225.899	89.5083	-9.29484	-228.704	135.696	-1.13254	-236.375	125.829	30.4211	-201.085	127.476	24.7303	
238	1.98333	-173.973	92.6216	30.5122	-155.277	82.4239	10.761	-131.127	83.6906	-4.99059	-114.085	81.8632	-15.6438	-161.256	118.573	-46.7088	-169.541	86.3926	-55.1632	-177.018	80.1203	-22.3966	-186.896	119.536	-57.2798	-192.156	84.7427	-56.0578	-195.329	83.3599	-16.6564	-208.455	112.257	-57.422	-208.208	81.6683	-51.1417	-211.675	82.5396	-16.4878	-232.205	109.63	-52.3297	-224.424	83.7929	-41.3346	-223.992	88.7034	-10.4315	-223.914	135.741	1.24329	-237.058	127.866	29.5105	-197.629	124.648	27.4534	
239	1.99167	-172.505	93.5872	32.95	-153.819	85.2205	10.4029	-130.378	85.6779	-3.64468	-108.404	82.2676	-12.7061	-162.505	120.445	-46.3435	-164.648	89.3316	-54.9428	-176.527	81.8019	-20.1486	-185.175	120.843	-56.0912	-189.578	86.3909	-55.4148	-194.503	85.1334	-15.5459	-208.553	114.475	-56.1143	-205.576	80.778	-47.2862	-211.27	82.9378	-16.9736	-228.162	114.204	-48.7401	-221.989	82.9232	-39.6886	-219.533	87.7336	-11.4632	-224.023	137.82	-1.91434	-237.328	126.25	32.9321	-196.547	128.824	26.9256	
